# xmcd
#
# Track frame offsets:
#	150
#	13185
#	26070
#	38485
#	53050
#	68115
#	81128
#	91350
#	110055
#	128688
#
# Disc length: 1917 seconds
#
# Revision: 3
# Processed by: cddbd v1.5.2PL0 Copyright (c) Steve Scherf et al.
# Submitted via: audiograbber 1.83.01
#
DISCID=7b077b0a
DTITLE=Alan Jackson - Honky Tonk Christmas
DYEAR=1993
DGENRE=Country Christmas
TTITLE0=Honky Tonk Christmas
TTITLE1=The Angels Cried (Duet with Alison Krauss)
TTITLE2=If We Make It Through December
TTITLE3=If You Don't Wanna See Santa Claus
TTITLE4=I Only Want You For Christmas
TTITLE5=Merry Christmas To Me
TTITLE6=A Holly Jolly Christmas
TTITLE7=There's A New Kid In Town (Duet with Keith Whitley)
TTITLE8=Santa's Gonna Come In A Pickup Truck (Duet with The Chipmunks)
TTITLE9=Please Daddy (Don't Get Drunk This Christmas)
EXTD=1993 Arista Records, Inc. ARISTA 07822-18736-2
EXTT0=
EXTT1=
EXTT2=
EXTT3=
EXTT4=
EXTT5=
EXTT6=
EXTT7=
EXTT8=
EXTT9=
PLAYORDER=
